<?xml version="1.0" standalone="no"?><!DOCTYPE svg PUBLIC "-//W3C//DTD SVG 1.1//EN" "http://www.w3.org/Graphics/SVG/1.1/DTD/svg11.dtd"><svg t="1553149666414" class="icon" style="" viewBox="0 0 6826 1024" version="1.1" xmlns="http://www.w3.org/2000/svg" p-id="3178" xmlns:xlink="http://www.w3.org/1999/xlink" width="426.625" height="64"><defs><style type="text/css"></style></defs><path d="M-1457.7777783 512L4287.9999997 887.466667C4379.0222217 978.488889 4492.79999969 1024 4629.33333269 1024 4913.77777669 1024 5141.33333269 796.444444 5141.33333269 512S4913.77777669 0 4629.33333269 0c-136.533333 0-250.311111 45.511111-341.33333299 136.533333L-1457.7777783 512z m6371.55555499 0C4913.77777669 671.288889 4788.62222169 796.444444 4629.33333269 796.444444c-22.755556 0-34.133333 0-56.888889-11.377777l-11.377778 0c-11.377778 0-34.133333-11.377778-45.511111-11.377778-11.377778 0-11.377778 0-11.37777801-11.377778-11.377778 0-22.755556-11.377778-34.13333299-11.37777799-11.377778 0-11.377778-11.377778-11.377778-11.37777701l-22.755555-22.755556-11.377778-11.377778c-11.377778-11.377778-22.755556-11.377778-22.755556-22.755555 0 0-11.377778-11.377778-11.377777-22.75555599s-11.377778-22.755556-11.377778-22.755555c0-11.377778-11.377778-11.377778-11.377778-22.75555601s-11.377778-22.755556-11.377778-34.133333l0-68.266667c0-22.755556-11.377778-34.133333-11.377777-56.888889l0-11.377778c0-11.377778 11.377778-22.755556 11.377777-34.133333 0-11.377778 0-11.377778 11.377778-22.755556 0-11.377778 11.377778-22.755556 11.377778-22.75555501 0-11.377778 11.377778-11.377778 11.377778-22.75555599 11.377778-11.377778 22.755556-11.377778 34.133333-22.755555l11.377778-11.377778 22.755555-22.755556 11.377778-11.37777701c11.377778-11.377778 22.755556-11.377778 34.13333299-11.37777799l11.37777801-11.377778c22.755556-11.377778 34.133333-11.377778 45.511111-11.377778L4572.44444369 238.933333c22.755556-11.377778 34.133333-11.377778 56.888889-11.377777C4788.62222169 227.555556 4913.77777669 352.711111 4913.77777669 512z" p-id="3179" fill="#d81e06"></path></svg>