<?xml version="1.0" standalone="no"?><!DOCTYPE svg PUBLIC "-//W3C//DTD SVG 1.1//EN" "http://www.w3.org/Graphics/SVG/1.1/DTD/svg11.dtd"><svg t="1553306335667" class="icon" style="" viewBox="0 0 1024 1024" version="1.1" xmlns="http://www.w3.org/2000/svg" p-id="9141" xmlns:xlink="http://www.w3.org/1999/xlink" width="128" height="128"><defs><style type="text/css"></style></defs><path d="M933.4 824.6c-17.8-32.7-44.5-67.7-66.5-87-43.8-38.4-108.3-62.6-181.7-68.1-33.2-2.5-58.4-13-66-27.4-3.9-7.5-3-15.9 2.8-25 2.8-4.4 9.4-10.2 17.7-17.5 34.6-30.2 98.9-86.3 98.9-220.6 0-36.2-4.9-70.4-14.5-101.7-9.8-31.9-24.3-60-43.1-83.5-40.5-50.6-99.1-77.3-169.4-77.3s-128.9 26.7-169.4 77.3c-18.8 23.5-33.3 51.6-43.1 83.5-9.6 31.3-14.5 65.5-14.5 101.7 0 129.5 59.3 183.1 94.8 215.1 10.1 9.2 18.1 16.4 21.6 22.7 5.4 9.8 6 18.6 1.8 26.3-7.8 14.1-32.1 24-64.9 26.4-73.4 5.5-137.9 29.7-181.7 68.1-22 19.3-48.8 54.3-66.5 87-16 29.4-32.4 70.5-20.2 99.3 9.3 21.9 33.1 31.9 70.6 29.8h743c3.3 0.2 6.5 0.3 9.6 0.3 32 0 52.5-10.1 61-30.1 12.1-28.7-4.3-69.8-20.3-99.3z m-53.8 64.1c-0.7 2.5-1.5 2.5-2.4 2.5-69 0-677.8-0.1-731.3 0-1.1 0-2.8 0-3.8-3.8-2.4-9.3 2.7-31.4 19.7-58.1 18.8-29.5 45.9-54.7 76.3-71 39.9-21.3 78.8-24.9 113-28 39.9-3.6 74.3-6.8 95.1-37.6 22.9-34 34.7-80.9 12.9-104.7-14.5-15.8-28.5-28.4-40.8-39.4-42.6-38.1-70.7-63.3-70.7-169.6 0-125.8 61.3-200.8 164-200.8s164 75.1 164 200.8c0 94.5-35.6 127.9-70.1 160.2-16.2 15.2-31.6 29.6-43 49.8-10.9 19.3-11.1 59.9 14.2 103.4 17.1 29.5 52.1 33.1 92.7 37.3 35.4 3.7 75.4 7.8 115.7 28.6 63 32.7 99.8 110.2 94.5 130.4z" p-id="9142" fill="#8a8a8a"></path></svg>