<?xml version="1.0" standalone="no"?><!DOCTYPE svg PUBLIC "-//W3C//DTD SVG 1.1//EN" "http://www.w3.org/Graphics/SVG/1.1/DTD/svg11.dtd"><svg t="1553303908470" class="icon" style="" viewBox="0 0 1025 1024" version="1.1" xmlns="http://www.w3.org/2000/svg" p-id="2566" xmlns:xlink="http://www.w3.org/1999/xlink" width="128.125" height="128"><defs><style type="text/css"></style></defs><path d="M365.107041 730.21408199C163.77985001 730.21408199 0 566.434231 0 365.107041S163.77985001 0 365.107041 0s365.107041 163.77985001 365.10704099 365.121499-163.77985001 365.092583-365.10704099 365.09258299z m0-674.04488c-170.343767 0-308.937839 138.594072-308.93783901 308.93783901s138.594072 308.937839 308.93783901 308.937839 308.937839-138.594072 308.937839-308.923381S535.450808 56.16920199 365.107041 56.16920199z" fill="#dbdbdb" p-id="2567"></path><path d="M997.903341 1023.999971a28.00508201 28.00508201 0 0 1-19.908621-8.26995699l-393.675983-393.25670301a28.083155 28.083155 0 1 1 39.687119-39.744951l393.675984 393.256703a28.09183001 28.09183001 0 0 1-19.836331 47.957076z" fill="#dbdbdb" p-id="2568"></path></svg>