<?xml version="1.0" standalone="no"?><!DOCTYPE svg PUBLIC "-//W3C//DTD SVG 1.1//EN" "http://www.w3.org/Graphics/SVG/1.1/DTD/svg11.dtd"><svg class="icon" width="128px" height="128.00px" viewBox="0 0 1024 1024" version="1.1" xmlns="http://www.w3.org/2000/svg"><path d="M511.8 63.9C264.9 63.9 64 264.8 64 511.8c0 246.9 200.9 447.8 447.8 447.8s447.8-200.9 447.8-447.8c0-247-200.9-447.9-447.8-447.9z m0 844.5c-218.8 0-396.7-177.9-396.7-396.7C115.1 292.9 293 115 511.8 115s396.7 178 396.7 396.8c0 218.7-177.9 396.6-396.7 396.6z m9.5-229.4c-69.9 0.8-133.3-28.7-177.6-76.2l-38.9 32.9c53.9 58.7 131.4 95.2 217.1 94.2 80.6-0.9 153.3-34.7 205.4-88.5l-36.8-35.2c-43 44.2-102.8 72-169.2 72.8z m110.3-280.1c0-27.9 22.6-50.5 50.5-50.5s50.5 22.6 50.5 50.5-22.6 50.5-50.5 50.5-50.5-22.6-50.5-50.5z m-340.5 0c0-27.9 22.6-50.5 50.5-50.5s50.5 22.6 50.5 50.5-22.6 50.5-50.5 50.5-50.5-22.6-50.5-50.5z" fill="#707070" /></svg>