<?xml version="1.0" standalone="no"?><!DOCTYPE svg PUBLIC "-//W3C//DTD SVG 1.1//EN" "http://www.w3.org/Graphics/SVG/1.1/DTD/svg11.dtd"><svg class="icon" width="128px" height="128.00px" viewBox="0 0 1024 1024" version="1.1" xmlns="http://www.w3.org/2000/svg"><path d="M695.296 895.488L359.424 512l339.968-388.096c11.264-12.8 17.92-30.72 17.92-50.688 0-40.448-28.672-73.216-64-73.216-17.408 0-33.28 7.68-44.544 20.48L225.28 459.264c-11.776 13.312-19.456 32.256-19.456 52.736 0 20.992 7.68 39.424 19.456 52.736l384 438.784c11.776 12.8 27.136 20.48 44.544 20.48 35.328 0 64-32.768 64-73.216 0-22.016-8.704-41.984-22.528-55.296z" fill="#ffffff" /></svg>