<?xml version="1.0" standalone="no"?><!DOCTYPE svg PUBLIC "-//W3C//DTD SVG 1.1//EN" "http://www.w3.org/Graphics/SVG/1.1/DTD/svg11.dtd"><svg t="1553254059228" class="icon" style="" viewBox="0 0 1024 1024" version="1.1" xmlns="http://www.w3.org/2000/svg" p-id="14295" xmlns:xlink="http://www.w3.org/1999/xlink" width="128" height="128"><defs><style type="text/css"></style></defs><path d="M768 345.6a44.8 44.8 0 0 1-44.8-44.8 211.2 211.2 0 0 0-422.4 0 44.8 44.8 0 1 1-89.6 0 300.8 300.8 0 0 1 601.6 0 44.8 44.8 0 0 1-44.8 44.8zM849.28 384H174.72a46.72 46.72 0 0 0-46.72 46.72v546.56a46.72 46.72 0 0 0 46.72 46.72h674.56a46.72 46.72 0 0 0 46.72-46.72V430.72a46.72 46.72 0 0 0-46.72-46.72zM576 812.8a19.2 19.2 0 0 1-19.2 19.2H467.2a19.2 19.2 0 0 1-19.2-19.2V595.2a19.2 19.2 0 0 1 19.2-19.2h89.6a19.2 19.2 0 0 1 19.2 19.2z" fill="#e6e6e6" p-id="14296"></path></svg>